<svg xmlns="http://www.w3.org/2000/svg" viewBox="0 0 52.9 52.8"><defs><style>.a{fill:#660;}.b{fill:#d85a46;}.c{fill:#4aa04c;}.d{fill:#55ba5a;}.e{fill:#addbce;}.f{fill:#6ccf91;}</style></defs><title>tortoisecircle</title><path class="a" d="M40.3,18.1l8.2-4.7a1,1,0,0,0,.4-.5.88.88,0,0,0-.1-.7A26.55,26.55,0,0,0,27.8,0h0a1.42,1.42,0,0,0-.6.2.86.86,0,0,0-.3.6v9.4a.79.79,0,0,0,.8.8,15.3,15.3,0,0,1,11.6,6.7A.65.65,0,0,0,40.3,18.1Z"/><path class="b" d="M49.9,14.3a.66.66,0,0,0-.5-.4h-.2a.6.6,0,0,0-.4.1l-8.2,4.7a.8.8,0,0,0-.3,1.1,15.71,15.71,0,0,1,0,13.4.91.91,0,0,0,.3,1.1L48.8,39a1.27,1.27,0,0,0,.6.1,1,1,0,0,0,.5-.4,26.31,26.31,0,0,0,0-24.4Z"/><path class="c" d="M48.4,39.5l-8.2-4.7a.6.6,0,0,0-.4-.1.75.75,0,0,0-.7.4,15.3,15.3,0,0,1-11.6,6.7.86.86,0,0,0-.8.8V52a.86.86,0,0,0,.3.6.73.73,0,0,0,.6.2,26.29,26.29,0,0,0,21-12.2.82.82,0,0,0,.1-.7C48.8,39.8,48.6,39.6,48.4,39.5Z"/><path class="d" d="M25.4,41.7A15.3,15.3,0,0,1,13.8,35a.8.8,0,0,0-1.1-.3L4.5,39.4a1,1,0,0,0-.4.5.88.88,0,0,0,.1.7,26.55,26.55,0,0,0,21,12.2,1.07,1.07,0,0,0,.6-.2.86.86,0,0,0,.3-.6V42.6A.88.88,0,0,0,25.4,41.7Z"/><path class="e" d="M25.3,0h0A26.47,26.47,0,0,0,4.2,12.2a.82.82,0,0,0-.1.7,1,1,0,0,0,.4.5l8.9,5.1a15.12,15.12,0,0,1,12-7.3.86.86,0,0,0,.8-.8V.9a.86.86,0,0,0-.3-.6A.86.86,0,0,0,25.3,0Z"/><path class="f" d="M11.1,26.4a15.6,15.6,0,0,1,1.5-6.7.91.91,0,0,0-.3-1.1L4.1,13.9a.6.6,0,0,0-.4-.1H3.5a1,1,0,0,0-.5.4A26.31,26.31,0,0,0,3,38.6a.66.66,0,0,0,.5.4.61.61,0,0,0,.6-.1l8.2-4.7a.8.8,0,0,0,.3-1.1A15.28,15.28,0,0,1,11.1,26.4Z"/></svg>